<?xml version="1.0" encoding="UTF-8"?> <svg xmlns="http://www.w3.org/2000/svg" width="500" height="250" viewBox="0 0 500 250" fill="none"><rect width="500" height="250" fill="#130331"></rect><path d="M374.794 76.1568V75.8599C374.794 75.7114 374.646 75.7114 374.497 75.5629C374.349 75.5629 374.201 75.4145 374.201 75.4145H373.31V76.899H374.201C374.349 76.899 374.497 76.7506 374.646 76.7506C374.794 76.7506 374.794 76.6021 374.794 76.4537V76.1568ZM377.17 80.0166H375.388L373.755 78.0867H373.31V80.0166H371.974V74.6722H374.943C375.24 74.6722 375.388 74.8207 375.685 74.9691C375.982 75.1176 376.13 75.266 376.279 75.4145C376.427 75.5629 376.427 75.8599 376.427 76.1568C376.427 76.6021 376.279 76.899 376.13 77.196C375.982 77.4929 375.685 77.6413 375.24 77.7898L377.17 80.0166ZM378.357 77.4929C378.357 76.3052 377.912 75.266 377.17 74.5238C376.279 73.633 375.388 73.1876 374.201 73.1876C373.013 73.1876 371.974 73.633 371.232 74.5238C370.341 75.4145 370.044 76.3052 370.044 77.4929C370.044 78.6805 370.489 79.7197 371.232 80.462C372.122 81.3527 373.013 81.7981 374.201 81.7981C375.388 81.7981 376.427 81.3527 377.17 80.462C377.912 79.5713 378.357 78.6805 378.357 77.4929ZM379.545 77.4929C379.545 78.9774 378.951 80.3135 377.912 81.3527C376.873 82.3919 375.537 82.9857 374.052 82.9857C372.568 82.9857 371.231 82.3919 370.192 81.3527C369.153 80.3135 368.559 78.9774 368.559 77.4929C368.559 76.0083 369.153 74.6722 370.192 73.633C371.231 72.5938 372.568 72 374.052 72C375.537 72 376.873 72.5938 377.912 73.633C379.1 74.6722 379.545 76.0083 379.545 77.4929ZM152.262 77.4929C138.901 77.4929 127.47 84.4703 121.384 94.2684C116.188 103.473 115 118.318 115 128.116C115 137.914 116.188 152.909 121.384 161.964C127.322 171.762 138.753 178.74 152.262 178.74H347.924C361.285 178.74 372.716 171.762 378.803 161.964C383.999 152.909 385.186 137.914 385.186 128.116C385.186 118.318 383.999 103.324 378.803 94.2684C372.864 84.4703 361.434 77.4929 347.924 77.4929H152.262Z" fill="#C1C6D2"></path><path d="M282.456 122.624H298.934V122.178C298.934 114.607 295.965 114.162 290.473 114.162C283.792 114.013 282.605 116.092 282.456 122.624ZM166.81 114.459C172.155 114.459 175.124 115.052 175.124 122.327V122.624H158.942C159.091 116.389 160.427 114.459 166.81 114.459ZM143.949 128.413C143.949 146.08 148.402 152.463 167.107 152.463C174.085 152.463 179.726 151.869 183.883 149.643C187.742 147.416 190.118 143.556 190.118 136.579H175.421C175.272 141.626 171.858 142.22 167.107 142.22C160.278 142.22 158.942 139.399 158.942 130.937V130.64H190.118V128.413C190.118 109.114 184.922 104.215 167.107 104.215C148.105 104.215 143.949 110.153 143.949 128.413ZM200.064 119.655C200.064 129.156 203.33 133.461 223.223 133.461C225.004 133.461 227.825 133.312 229.458 134.055C230.943 134.797 231.685 136.133 231.685 138.508C231.685 142.665 230.2 143.111 223.074 143.111C219.215 143.111 215.206 142.962 214.91 137.766H200.064C200.213 148.158 205.112 151.573 214.316 152.315C217.136 152.463 220.105 152.463 223.223 152.463C235.842 152.463 246.382 150.385 246.382 136.727C246.382 123.663 239.553 122.772 223.223 122.327C215.058 122.178 214.613 120.397 214.613 117.725C214.613 114.607 214.91 113.568 223.223 113.568C226.192 113.568 229.31 113.865 229.903 117.576H244.006V115.646C244.006 104.364 232.13 104.215 223.223 104.215C209.714 104.215 200.064 104.512 200.064 119.655ZM322.984 104.215H359.801V115.052H348.815V152.018H333.821V115.052H322.836V104.215H322.984ZM267.759 128.117C267.759 109.856 271.767 104.067 290.77 104.067C308.436 104.067 313.631 108.817 313.631 128.117V130.195H282.456V130.64C282.456 139.102 283.792 142.071 290.77 142.071C295.372 142.071 298.934 141.626 299.231 136.43H313.631C313.483 143.111 311.256 146.97 307.396 149.197C303.388 151.424 297.747 152.018 290.77 152.018C272.213 152.018 267.759 145.783 267.759 128.117ZM133.111 160.925C125.54 152.76 123.907 140.141 123.907 128.117C123.907 116.092 125.54 103.473 133.111 95.3078C137.862 90.2602 147.066 86.4004 154.786 86.4004H255.586V169.833H154.786C146.918 169.833 137.862 165.973 133.111 160.925Z" fill="#130331"></path></svg> 