<?xml version="1.0" encoding="UTF-8"?> <svg xmlns="http://www.w3.org/2000/svg" width="82" height="40" viewBox="0 0 82 40" fill="none"><path d="M23.1037 27.9874C23.1087 28.4463 23.0224 28.9016 22.8497 29.3265C22.6771 29.7515 22.4216 30.1375 22.0982 30.4621C21.7748 30.7866 21.3901 31.043 20.9666 31.2162C20.5431 31.3895 20.0894 31.4761 19.6321 31.471C19.1738 31.48 18.7183 31.3961 18.2931 31.2242C17.8679 31.0523 17.4816 30.796 17.1574 30.4707C16.8333 30.1454 16.5779 29.7578 16.4066 29.3311C16.2353 28.9044 16.1516 28.4473 16.1606 27.9874V15.9748C16.1007 14.7855 16.6953 14.1469 16.8788 13.9346H12.2102C12.4556 14.1469 13.0482 14.8276 13.0482 15.9768V27.2706C13.0542 30.9345 15.995 33.5432 19.6321 33.5172C23.2473 33.5432 26.1861 30.9345 26.2161 27.2706V15.9748C26.1921 14.7835 26.7847 14.1469 27.054 13.9326H22.3854C22.545 14.1449 23.1376 14.8256 23.1037 15.9748V27.9874ZM4.66861 33.2749C4.48506 33.0367 3.89051 32.398 3.95037 31.2308V23.5427H8.02044C8.76662 23.5487 9.40307 23.8891 9.81606 24.2635L9.69635 21.6227H3.95037V15.8566H9.45693C10.2071 15.8066 10.8436 16.147 11.2526 16.5774L11.1328 13.9346H0C0.245401 14.1469 0.837956 14.8276 0.837956 15.9768V31.2328C0.837956 32.4 0.245401 33.0367 0 33.2769L4.66861 33.2749ZM27.4131 40C27.6326 39.8438 30.0068 37.163 30.0467 35.3151V15.9748C30.0296 15.2133 29.7309 14.4854 29.2088 13.9326H33.8774C33.6539 14.1449 33.0594 14.7835 33.0394 15.9748V32.6723C33.0594 36.7386 31.1939 39.8859 27.4131 40ZM39.7431 31.2328C39.759 32.4 40.3516 33.0367 40.581 33.2769H35.9124C36.1119 33.0387 36.7045 32.358 36.7504 31.1147V15.9748C36.7283 15.2149 36.4303 14.4894 35.9124 13.9346H40.581C40.3516 14.1469 39.759 14.7855 39.7431 15.9768V31.2328ZM45.9679 13.9346H50.6365ZM34.7153 2.04214C35.8585 0.534561 37.1833 0.0560589 38.6657 0C41.5127 0.0560589 43.7952 2.34646 43.8131 5.16542C43.7952 7.99439 41.5127 10.2848 38.6657 10.3308C37.602 10.2762 36.5707 9.94502 35.673 9.36984C34.6694 8.73317 33.7377 7.4258 33.2788 6.84719C33.0336 6.54356 32.7233 6.29942 32.3709 6.13302C32.0185 5.96661 31.6332 5.88223 31.2438 5.88618C30.5136 5.88618 29.8133 6.17727 29.2969 6.69542C28.7806 7.21356 28.4905 7.91631 28.4905 8.64908C28.5085 10.1286 29.7295 11.3539 31.2438 11.412C32.5446 11.3539 33.9911 10.1467 34.3562 9.48996V11.412C33.9606 11.8412 33.4784 12.1811 32.9418 12.4089C32.4051 12.6367 31.8263 12.7473 31.2438 12.7334C28.9673 12.7374 27.1298 10.8934 27.1737 8.64908C27.1298 6.34066 28.9673 4.49472 31.2438 4.44467C32.4469 4.49472 33.5322 5.01927 34.2365 5.88618C34.9248 6.74508 35.7827 7.87827 36.6307 8.2887C37.2172 8.6671 37.9295 8.90135 38.6657 8.88933C39.1551 8.89745 39.6411 8.80674 40.0949 8.62259C40.5486 8.43845 40.9608 8.16463 41.307 7.81741C41.6532 7.4702 41.9263 7.05668 42.1101 6.60144C42.2938 6.1462 42.3845 5.65853 42.3766 5.16743C42.4165 3.11327 40.7506 1.44352 38.6657 1.44352C36.902 1.44352 35.5194 2.45057 34.4759 4.5688L34.7153 2.04214ZM78.1693 27.9874C78.1574 29.9174 76.5872 31.4931 74.6978 31.471C73.7616 31.4855 72.858 31.127 72.1848 30.474C71.5116 29.8209 71.1239 28.9268 71.1066 27.9874V15.9748C71.1305 14.7835 71.7251 14.1469 71.9445 13.9326H67.2759C67.4834 14.1449 68.078 14.8256 68.1139 15.9748V27.2686C68.0839 30.9325 71.0228 33.5412 74.6978 33.5152C78.2751 33.5412 81.2159 30.9325 81.162 27.2686V15.9748C81.2219 14.7835 81.8145 14.1469 82 13.9326H77.3314C77.5748 14.1449 78.1674 14.8256 78.1693 15.9748V27.9874ZM41.5387 16.6975C42.4704 15.6364 43.4041 15.8066 44.1723 15.8566H46.8058V31.1127C46.7959 32.356 46.2033 33.0367 45.9679 33.2749H50.6365C50.443 33.0367 49.8484 32.398 49.7985 31.2308V15.8566H52.3124C53.1125 15.8066 53.7908 15.7225 54.2277 16.6975L55.0657 13.9346H42.3766L41.5387 16.6975ZM64.8818 16.6975V13.9346C63.3295 13.5082 56.3765 12.361 55.0657 17.7787C54.7245 19.7207 55.5705 22.2313 58.0584 23.5447C59.6844 24.3155 61.8033 25.5068 62.4876 25.9472C63.5849 26.6119 63.7844 27.641 63.4453 28.9504C63.1181 30.3999 59.5986 33.5472 55.0657 29.551L56.0234 32.9146C58.8365 34.0177 63.3734 33.5913 65.4803 31.2328C67.5273 28.9104 67.1881 25.4647 65.0015 24.0252C63.5929 23.0602 60.0236 21.0821 59.3752 20.7818C58.8345 20.4875 56.8434 18.1891 59.0161 16.0969C61.1568 14.0347 64.2194 15.254 64.8818 16.6975Z" fill="#C1C6D2"></path></svg> 