<?xml version="1.0" encoding="UTF-8"?> <svg xmlns="http://www.w3.org/2000/svg" width="128" height="28" viewBox="0 0 128 28" fill="none"><path d="M69.606 9.23978H72.4676V17.1999C72.4676 21.2404 70.2408 23.5579 66.3615 23.5579C62.5225 23.5579 60.3158 21.2807 60.3158 17.3107V9.24986H63.1775V17.22C63.1775 19.5778 64.3362 20.8374 66.4018 20.8374C68.4674 20.8374 69.606 19.6081 69.606 17.3208V9.23978ZM53.4843 14.9227H47.0154V9.23978H44.1538V23.3463H47.0154V17.613H53.4742V23.3463H56.3358V9.23978H53.4742V14.9227H53.4843ZM125.145 9.23978V23.3261H127.967V9.23978H125.145ZM113.911 17.2704H119.12V14.701H113.911V11.8092H121.468V9.24986H111.089V23.3362H121.74V20.7668H113.911V17.2704ZM102.686 18.933L99.4816 9.22971H97.1439L93.9397 18.933L90.8262 9.23978H87.7832L92.7004 23.3362H95.0683L98.2724 14.0763L101.477 23.3362H103.865L108.772 9.23978H105.799L102.686 18.933ZM82.6948 9.32039L88.8513 23.3362H85.8486L84.579 20.4041H78.1203L78.0296 20.6056L76.8406 23.3362H73.9186L80.1355 9.23978H82.6344L82.6948 9.32039ZM83.38 17.5223L81.3446 12.7966L79.3193 17.5223L79.1783 17.8448H83.511L83.38 17.5223Z" fill="#C1C6D2"></path><path d="M15.9811 21.8449C16.0214 21.8147 16.0315 21.7543 16.0113 21.7039C13.2329 15.7321 9.7668 10.1052 5.68334 4.93728C5.68334 4.93728 2.43884 8.02056 2.67059 11.1139C2.72488 11.8271 2.91924 12.5226 3.24255 13.1605C3.56587 13.7985 4.01179 14.3665 4.55482 14.832C7.3862 17.5928 14.2379 21.0792 15.83 21.8752C15.8803 21.8953 15.9408 21.8853 15.9811 21.8449ZM14.9231 24.2027C14.903 24.1423 14.8425 24.102 14.772 24.102L3.36584 24.495C4.6052 26.7016 6.69095 28.4146 8.85731 27.8906C10.3586 27.5178 13.7442 25.1499 14.8627 24.3438C14.9533 24.2733 14.9231 24.2128 14.9231 24.2027ZM15.0944 23.1851C15.1549 23.0944 15.0541 23.0138 15.0541 23.0138C10.0463 19.6282 0.332942 14.4289 0.332942 14.4289C0.0109898 15.4158 -0.0790744 16.4635 0.0697492 17.4908C0.218573 18.5181 0.602276 19.4972 1.19104 20.3521C1.7798 21.2069 2.55776 21.9145 3.46445 22.4199C4.37114 22.9252 5.38215 23.2146 6.4189 23.2657C6.59019 23.2959 13.2001 23.2657 14.9735 23.2556C15.0239 23.2455 15.0642 23.2254 15.0944 23.1851ZM15.8501 0.0100761C15.3564 0.0503804 14.0163 0.362739 14.0163 0.362739C10.9934 1.1386 10.278 3.88937 10.278 3.88937C9.72385 5.61238 10.2881 7.51676 10.2881 7.51676C11.2957 11.9905 16.2532 19.3562 17.3212 20.8978C17.3917 20.9784 17.4522 20.9482 17.4522 20.9482C17.5127 20.928 17.563 20.8776 17.563 20.8071C19.2155 4.36294 15.8501 0.0100761 15.8501 0.0100761ZM19.6286 20.928C19.6891 20.9482 19.7596 20.928 19.7899 20.8676C20.8882 19.2856 25.8154 11.9603 26.823 7.50668C26.823 7.50668 27.3671 5.3504 26.8431 3.87929C26.8431 3.87929 26.0975 1.08822 23.0747 0.352663C23.0747 0.352663 22.2081 0.130989 21.2811 0C21.2811 0 17.8956 4.35287 19.548 20.797C19.538 20.8575 19.5783 20.9079 19.6286 20.928ZM22.329 24.1121C22.3022 24.1175 22.2767 24.1283 22.2542 24.1439C22.2317 24.1595 22.2126 24.1795 22.198 24.2027C22.188 24.2632 22.198 24.3136 22.2383 24.3539C23.3266 25.1398 26.6416 27.4573 28.2336 27.9007C28.2336 27.9007 31.1859 28.9083 33.7452 24.505L22.329 24.1121ZM36.7882 14.4088C36.7882 14.4088 27.095 19.6181 22.0771 23.0037C22.0267 23.044 21.9965 23.1045 22.0167 23.1649C22.0167 23.1649 22.0671 23.2556 22.1376 23.2556C23.9311 23.2556 30.7224 23.2657 30.9038 23.2354C31.5789 23.1851 32.2439 23.0339 32.8686 22.782C32.8686 22.782 35.2869 22.0162 36.5363 19.2655C36.5363 19.2655 37.6548 17.0286 36.7882 14.4088ZM21.1602 21.8449C21.2005 21.8752 21.261 21.8853 21.3113 21.855C22.9437 21.0389 29.745 17.5828 32.5563 14.832C32.5563 14.832 34.3397 13.4012 34.4304 11.0938C34.6319 7.89965 31.4177 4.93728 31.4177 4.93728C31.4177 4.93728 25.4728 12.1417 21.1098 21.6636C21.1028 21.6956 21.1038 21.7289 21.1125 21.7605C21.1213 21.7921 21.1377 21.8211 21.1602 21.8449Z" fill="#C1C6D2"></path></svg> 