<?xml version="1.0" encoding="UTF-8"?> <svg xmlns="http://www.w3.org/2000/svg" width="800" height="595" viewBox="0 0 800 595" fill="none"><path d="M425.933 95.5184C425.933 95.5184 360.267 91.185 248.367 126.185C134.367 161.852 69.7 212.418 69.7 212.418C69.7 212.418 239.633 117.518 431.433 112.152L425.933 95.5184ZM670.967 198.685L679.533 198.118C679.533 198.118 630.6 138.785 536.933 109.852C589.6 131.252 635.4 159.618 670.967 198.685ZM684.967 223.352C686.267 221.085 690.5 230.585 693.733 234.585C693.867 235.385 694.067 235.885 692.233 235.485C692.067 234.652 691.8 234.418 691.8 234.418C691.8 234.418 687.3 231.752 685.9 229.852C684.533 227.952 684.267 224.618 684.967 223.352ZM799.9 505.985C799.9 505.985 810.3 386.718 622.9 359.218C595.033 355.199 566.921 353.116 538.767 352.985C388.567 354.985 383.1 179.752 496.267 170.918C543.167 167.052 599.167 192.352 653.933 217.852C653.7 224.652 654 230.685 658.467 236.252C662.933 241.852 680.067 247.918 685.567 251.085C691.033 254.218 708.6 265.418 719.367 279.418C721.7 275.052 741.167 262.352 741.167 262.352C741.167 262.352 736.5 262.452 725.667 258.385C714.8 254.318 701.9 242.052 701.6 241.352C701.267 240.618 701.1 239.518 703.6 239.018C705.567 237.385 701.2 232.118 699.267 230.185C697.333 228.252 684.433 206.318 684.133 205.852C683.833 205.318 683.733 204.818 682.8 204.185C679.967 203.285 667.467 205.518 667.467 205.518C667.467 205.518 648.3 196.085 641.667 175.752C641.767 179.318 638.367 183.218 641.667 191.385C631.667 187.152 623.067 179.918 616.267 162.052C612.267 172.218 616.267 178.685 616.267 178.685C616.267 178.685 592.7 172.085 588.933 150.352C584.8 160.118 588.933 165.985 588.933 165.985C588.933 165.985 550.5 145.918 486.633 145.652C443.867 141.718 434.967 66.5184 438.967 53.8517C438.967 53.8517 377.3 21.3517 255.867 6.98505C134.467 -7.34828 34.9333 4.81838 34.9333 4.81838C34.9333 4.81838 249.933 -5.51494 422.167 64.2517C428.033 90.4184 445.633 134.052 455.133 155.018C427.967 173.785 397.367 191.418 392.6 254.018C387.833 316.618 441.667 371.685 508.4 373.352C571.733 376.752 615.533 377.218 668.6 404.752C719.267 432.752 760.8 518.085 764.933 594.852C769.333 537.885 747.967 415.418 648.267 378.252C787.633 402.652 799.9 505.985 799.9 505.985ZM422.667 86.1851L417.667 70.0184C417.667 70.0184 334.867 55.3184 223.6 63.2184C112.333 71.1184 0 110.085 0 110.085C0 110.085 229.867 52.2517 422.667 86.1851Z" fill="#81808A"></path></svg> 