<?xml version="1.0" encoding="UTF-8"?> <svg xmlns="http://www.w3.org/2000/svg" width="500" height="250" viewBox="0 0 500 250" fill="none"><rect width="500" height="250" fill="#130331"></rect><path d="M292.887 89C279.535 89 273.629 93.7106 273.629 104.359V114.43H266.128V127.942H273.631V158.743H289.801V127.942H298.972V114.43H289.801V106.038C289.801 102.643 291.943 100.916 295.304 100.916C297.734 100.916 298.747 101.045 300.055 101.421V89.9239C298.185 89.3599 295.224 89 292.885 89H292.887ZM104.669 91.5191L94 158.741H110.255L115.923 121.228L124.091 158.743H142.93L121.839 91.5164L104.669 91.5191ZM145.347 91.5191L134.176 125.004L143.512 154.629L150.434 121.228L155.854 158.743H172.023L162.269 91.5164L145.347 91.5191ZM230.287 91.5191L209.697 158.741H225.952L229.036 149.091H250.209L253.208 158.743H269.38L248.873 91.5164L230.287 91.5191ZM400.666 112.08C397.697 112.08 395.332 114.449 395.332 117.451C395.332 120.454 397.697 122.823 400.666 122.823C403.635 122.823 406 120.451 406 117.451C406 114.449 403.632 112.08 400.666 112.08ZM400.666 113.254C402.958 113.254 404.833 115.034 404.833 117.451C404.833 119.855 402.958 121.733 400.666 121.733C398.371 121.733 396.497 119.853 396.497 117.451C396.497 115.034 398.371 113.254 400.666 113.254ZM239.788 113.423L245.875 134.068H233.45L239.788 113.423ZM322.978 114.095C307.931 114.095 299.638 126.048 299.638 137.258C299.638 148.473 307.177 160 322.311 160C338.102 160 343.269 150.861 345.234 144.558H330.98C330.151 146.631 328.206 148.084 322.978 148.084C318.299 148.084 315.328 144.807 315.227 140.279H346.569C346.665 139.536 346.647 138.684 346.647 137.929C346.647 125.49 339.788 114.095 322.978 114.095ZM372.659 114.095C357.617 114.095 349.319 126.048 349.319 137.258C349.319 148.473 356.865 160 371.992 160C387.778 160 393.039 150.861 394.997 144.558H380.743C379.903 146.631 377.885 148.084 372.659 148.084C367.986 148.084 365.005 144.807 364.907 140.279H396.328C396.424 139.536 396.414 138.684 396.414 137.929C396.414 125.49 389.464 114.095 372.659 114.095ZM398.414 114.683V120.22H399.581V118.037H400.58L401.833 120.22H403.167L401.748 118.037C402.734 117.973 403.25 117.392 403.25 116.361C403.25 114.879 402.442 114.68 401.164 114.68L398.414 114.683ZM194.443 114.849C179.871 114.849 172.605 126.212 172.605 137.425C172.605 148.637 179.871 159.833 194.443 159.833C201.919 159.833 205.363 158.061 207.697 156.643V142.124C205.643 144.023 203.082 145.232 197.945 145.232C192.431 145.232 188.775 142.511 188.775 137.425C188.775 132.338 192.434 128.949 197.945 128.949C203.362 128.949 205.459 130.243 207.697 131.551V117.451C204.885 116.222 200.14 114.849 194.443 114.849ZM399.579 115.69H400.834C401.375 115.69 402.168 115.663 402.168 116.275C402.168 116.888 401.783 117.03 401.164 117.03H399.579V115.69ZM322.727 125.09C327.673 125.09 330.039 128.328 330.313 130.963H315.392C315.485 128.328 317.769 125.09 322.727 125.09ZM372.49 125.09C377.447 125.09 379.792 128.328 380.076 130.963H365.156C365.246 128.328 367.538 125.09 372.49 125.09Z" fill="#C1C6D2"></path></svg> 