<?xml version="1.0" encoding="UTF-8"?> <svg xmlns="http://www.w3.org/2000/svg" width="158" height="24" viewBox="0 0 158 24" fill="none"><path d="M150.72 23.5877H157.524L150.501 0.418792H140.83L133.807 23.5877H140.611L141.854 19.2966H149.477L150.72 23.5877ZM143.336 14.1423L145.649 6.14013H145.688L148.001 14.1423H143.336ZM33.9608 24C40.945 24 44.3211 22.7694 44.8043 16.4682C44.9203 14.967 44.9396 13.4271 44.9396 12.0032C44.9396 10.5793 44.9203 9.03946 44.8043 7.53825C44.3275 1.2306 40.9514 0 33.9608 0C26.9702 0 23.6005 1.2306 23.1238 7.53181C23.0078 9.03302 22.982 10.5729 22.982 11.9968C22.982 13.4271 23.0078 14.967 23.1238 16.4617C23.6005 22.7694 26.9766 24 33.9608 24ZM29.5667 11.9968C29.5667 10.7275 29.5989 9.97369 29.6247 9.41315C29.8051 5.83732 31.2161 5.41852 33.9608 5.41852C36.7055 5.41852 38.1165 5.83732 38.2969 9.41315C38.3227 9.97369 38.3549 10.7211 38.3549 11.9968C38.3549 13.2725 38.3227 14.0263 38.2969 14.5804C38.123 18.1562 36.7119 18.575 33.9608 18.575C31.2161 18.575 29.8051 18.1562 29.6247 14.5804C29.5989 14.0263 29.5667 13.2725 29.5667 11.9968ZM0 0.425235V6.19812H6.92617V23.5877H13.8523V6.20456H20.7785V0.425235H0ZM106.296 23.5877V0.418792H99.724V23.5877H106.296ZM79.8475 8.87839V0.418792H73.3079V23.5877H79.8475V14.6513H87.4438V23.5877H93.9769V0.418792H87.4438V8.87839H79.8475ZM127.925 11.4749C130.837 10.7275 131.694 8.98792 131.694 6.47517C131.694 1.38523 128.492 0.412349 123.937 0.412349H112.133V23.5812H124.523C130.225 23.5812 132.145 21.1264 132.145 17.3444C132.139 14.7157 131.533 12.3898 127.925 11.4749ZM118.66 14.0714H123.196C125.025 14.0714 125.412 14.8768 125.412 16.1783C125.412 17.4862 124.697 18.2915 123.196 18.2915H118.66V14.0714ZM118.66 5.7149H123.196C124.381 5.7149 125.109 6.27544 125.109 7.62846C125.109 8.78819 124.388 9.49691 123.196 9.49691H118.66V5.7149ZM48.7474 15.985H54.9777C54.9842 17.106 55.1259 17.8599 55.6736 18.2722C56.2921 18.7426 56.8462 18.8972 58.6889 18.8972C60.4607 18.8972 62.4 18.8972 62.4 16.713C62.4 14.9928 61.3176 14.5997 59.3138 14.4902C54.3463 14.226 52.5552 14.0843 50.706 12.7119C49.4432 11.7777 48.7925 9.95436 48.7925 7.48671C48.7925 3.29235 50.255 1.82336 52.3683 0.798926C54.546 -0.257718 63.0958 -0.257718 65.396 0.798926C68.2889 2.13262 68.3726 5.01906 68.3726 7.69289H62.1552C62.1423 6.32698 61.833 5.9404 61.5882 5.68913C60.9439 5.1157 60.0225 4.99329 58.6953 4.99329C57.091 4.99329 55.229 5.06416 55.229 7.01638C55.229 8.5047 55.8733 9.12966 57.5613 9.23919C59.8808 9.38738 64.4553 9.53557 66.0854 10.4956C68.3726 11.8486 68.9654 13.6784 68.9654 16.6615C68.9654 20.9783 67.4191 22.2411 65.2736 23.1882C62.793 24.2835 54.5138 24.2835 51.8207 23.1044C48.8118 21.7901 48.7474 19.1742 48.7474 15.985Z" fill="#C1C6D2"></path></svg> 